<svg width="500" height="500" viewBox="0 0 500 500" fill="none" xmlns="http://www.w3.org/2000/svg">
<rect width="500" height="500" rx="50" fill="#9950AD"/>
<path d="M125 50V87.5V125M125 125V162.5V200M125 125H87.5H50M125 125H162.5H200" stroke="white" stroke-width="40" stroke-linecap="round"/>
<path d="M200 375H162.5H125H87.5H50" stroke="white" stroke-width="40" stroke-linecap="round"/>
<ellipse cx="125" cy="318.75" rx="18.75" ry="18.75" fill="white"/>
<ellipse cx="125" cy="431.25" rx="18.75" ry="18.75" fill="white"/>
<path d="M450 125H412.5H375H337.5H300" stroke="white" stroke-width="40" stroke-linecap="round"/>
<path d="M321.967 321.967L348.484 348.483L375 375M375 375L401.517 401.517L428.033 428.033M375 375L348.484 401.517L321.967 428.033M375 375L401.517 348.483L428.033 321.967" stroke="white" stroke-width="40" stroke-linecap="round"/>
</svg>
